/* XPM */
static char *e829b83a72ac461899c6e31513569584aKC5Z5nFE62Eh9ca[] = {
/* columns rows colors chars-per-pixel */
"64 64 256 2 ",
"   c #050505",
".  c #090808",
"X  c #0B0B0B",
"o  c #140907",
"O  c #130D0B",
"+  c #1D0D0A",
"@  c #0E100F",
"#  c #14110E",
"$  c #1C120D",
"%  c #0C0D13",
"&  c #080D16",
"*  c #120F13",
"=  c #0D1117",
"-  c #121213",
";  c #1C1413",
":  c #13151A",
">  c #1B1819",
",  c #1B1B1C",
"<  c #220C0A",
"1  c #290B0A",
"2  c #23140D",
"3  c #2B130E",
"4  c #26180F",
"5  c #34120F",
"6  c #241512",
"7  c #2B1611",
"8  c #2D1A14",
"9  c #261A18",
"0  c #331412",
"q  c #3B1413",
"w  c #321C16",
"e  c #3B1B14",
"r  c #341719",
"t  c #331E18",
"y  c #3B1C19",
"u  c #2A231D",
"i  c #35221A",
"p  c #3B231C",
"a  c #39261C",
"s  c #0D1523",
"d  c #1C1C23",
"f  c #181C27",
"g  c #231E23",
"h  c #1D2129",
"j  c #1A2537",
"k  c #222224",
"l  c #282729",
"z  c #3C2621",
"x  c #352B27",
"c  c #3E2A22",
"v  c #37332B",
"b  c #292B34",
"n  c #2C3039",
"m  c #3A3838",
"M  c #451916",
"N  c #431B1A",
"B  c #511F1E",
"V  c #43241D",
"C  c #48261D",
"Z  c #54271C",
"A  c #602C1E",
"S  c #4B1E21",
"D  c #422422",
"F  c #442B23",
"G  c #482826",
"H  c #4A2C24",
"J  c #4B2C2A",
"K  c #532D25",
"L  c #562928",
"P  c #4B3226",
"I  c #45332A",
"U  c #4C332B",
"Y  c #553125",
"T  c #54342B",
"R  c #5B332C",
"E  c #55392D",
"W  c #5A3A2E",
"Q  c #562D32",
"!  c #463835",
"~  c #543532",
"^  c #553A32",
"/  c #5C3C33",
"(  c #573938",
")  c #5D3C3A",
"_  c #67382A",
"`  c #693434",
"'  c #623C33",
"]  c #653839",
"[  c #494437",
"{  c #5C4135",
"}  c #54473C",
"|  c #5D443C",
" . c #56513C",
".. c #624235",
"X. c #63453C",
"o. c #6A4639",
"O. c #664A3C",
"+. c #6B4C3D",
"@. c #74483B",
"#. c #71513F",
"$. c #1B2E53",
"%. c #2B3244",
"&. c #28354F",
"*. c #393A44",
"=. c #4F3D42",
"-. c #693B45",
";. c #37414C",
":. c #484546",
">. c #574845",
",. c #484E54",
"<. c #505057",
"1. c #585556",
"2. c #634542",
"3. c #684745",
"4. c #654B44",
"5. c #6B4C44",
"6. c #6C4C4A",
"7. c #734A48",
"8. c #6D5244",
"9. c #665649",
"0. c #6E524C",
"q. c #725344",
"w. c #73544C",
"e. c #785749",
"r. c #765A4A",
"t. c #7A5C4C",
"y. c #704B55",
"u. c #675757",
"i. c #765757",
"p. c #745A53",
"a. c #7A5C52",
"s. c #7B5D5A",
"d. c #5F615B",
"f. c #79644E",
"g. c #6E6954",
"h. c #7D6253",
"j. c #786559",
"k. c #7C645D",
"l. c #575B65",
"z. c #575F70",
"x. c #765761",
"c. c #586470",
"v. c #686666",
"b. c #7C6563",
"n. c #7D6B63",
"m. c #746668",
"M. c #7B6A6C",
"N. c #78776B",
"B. c #766B71",
"V. c #796E73",
"C. c #6D7173",
"Z. c #7B7276",
"A. c #767877",
"S. c #7B747A",
"D. c #7C7B7B",
"F. c #835646",
"G. c #835856",
"H. c #816655",
"J. c #82665B",
"K. c #846B5A",
"L. c #906954",
"P. c #815962",
"I. c #826463",
"U. c #826B65",
"Y. c #846B6B",
"T. c #8A6C68",
"R. c #896E6F",
"E. c #887467",
"W. c #95786B",
"Q. c #8B7374",
"!. c #897779",
"~. c #957A74",
"^. c #927B7C",
"/. c #7E817C",
"(. c #82847B",
"). c #99857A",
"_. c #A58A7C",
"`. c #3F6187",
"'. c #566F86",
"]. c #69778A",
"[. c #7B7C85",
"{. c #6279A4",
"}. c #837D83",
"|. c #807E8A",
" X c #957E81",
".X c #7D878E",
"XX c #708BAC",
"oX c #6F95C5",
"OX c #79A1C8",
"+X c #6FA5E5",
"@X c #838384",
"#X c #84848A",
"$X c #898988",
"%X c #9A8584",
"&X c #988887",
"*X c #8C908E",
"=X c #96918D",
"-X c #878B96",
";X c #9E8E91",
":X c #8A9497",
">X c #959694",
",X c #9E9294",
"<X c #A28B88",
"1X c #A49289",
"2X c #A39495",
"3X c #A49B9D",
"4X c #ABA199",
"5X c #8E9AA9",
"6X c #A59DA1",
"7X c #98A7A8",
"8X c #97A7B7",
"9X c #A6A5A6",
"0X c #A2ADB9",
"qX c #A8B2B8",
"wX c #B0B6B5",
"eX c #8EAECF",
"rX c #9AB3CA",
"tX c #98BAD7",
"yX c #A6B5C4",
"uX c #A5B9CA",
"iX c #AABCCC",
"pX c #B0B9CE",
"aX c #A6BCD1",
"sX c #90B8E9",
"dX c #A7BCE6",
"fX c #9EC3DD",
"gX c #B3C2CE",
"hX c #B9C3C9",
"jX c #ABC3D8",
"kX c #B4C6D0",
"lX c #B4C4D3",
"zX c #B9C6D3",
"xX c #BBCAD5",
"cX c #B5C8DA",
"vX c #BCCCDA",
"bX c #B1CBE4",
"nX c #B8CDE2",
"mX c #C3C9CA",
"MX c #C2CDD4",
"NX c #C1CEDA",
"BX c #C5D2DB",
"VX c #CCD6D9",
"CX c #CBD5DD",
"ZX c #D5DCDD",
"AX c #C4D3E2",
"SX c #CBD9E7",
"DX c #CDDAE4",
"FX c #D2DDE5",
"GX c #D3DDE9",
"HX c #CDDCF0",
"JX c #D5E2EB",
"KX c #DAE4E8",
"LX c #DAE4EB",
"PX c #E3E9ED",
"IX c #E4ECF2",
"UX c #EBF4F7",
/* pixels */
"v.@Xg.N.a g. .v [ /.*XKXJXJXFXJXFXZXDXSXvXjXnXnXsX+X+X+X+XkXXXfXjXfXOXfXjXoXeXOXeXjXrXuXeXaXlXaXjXlXlXlXgXgXkXiXuXgXgXiXuXuXiXyX",
"l /.N.N.v  .[ u d.*X.XPXKXKXKXJXJXJXDXBXSXSXAXfXfXfX+XsXBXZX8XvXnXrXoXfXnXfXbXjXeXtXeXeXaXlXlXuXzXzXxXzXpXlXiXlXkXgXlXgXiXuXyXuX",
"k (.N.N.v  .[ k d./.c.KXKXKXKXJXJXZXFXDXDXDXnXHXnXnXJXHXJXPX0XkXxXvXyXJXnXAXkXqXhXvXeXcXcXcXcXlXgXxXxXzXzXzXlXlXxXlXgXgXuXrXrXrX",
"l (.(.N.v 9.[ u d./.kXPXKXJXKXKXzXJXDXDXDXDXDXAXkXJXVXxX.XmXvXBXxXyX7XkXwXBXKX5XBXqXpXlX8XNXvXBXVXBXxXxXzXzXzXxXxXgXiXrXrXrXOXOX",
"h (.(.).u g.[ v m /.IXKXKXJXKXJXJXJXgXFXJXHXSXSXjX:XMXl b & s h j & s n <.].7XmXzXLXSXhXAXNXkXBXVXBXxXMXNXzXkXxXzXlXuXuXyXuXrXOX",
"k (.(.g.u g.[ [ n C.KXFXJXKXKXJXKXFXKXFXJXJXuXc.& f = & & & & & f b = % & h :.,.wXFXDXzXBXBXyXBXBXBXBXNXMXxXkXzXzXkXlXlXuXuXuXrX",
"k (.(.(.v  . .:.k A.GXGXGXKXJXKXKXJXMXvXhXb f : & b -X#X.X.XS.[.[.#X|.|.[.}.|.|.}.,.MXqXAXBXzXCXDXBXBXBXNXzXzXvXzXzXlXgXiXuXrXrX",
"C.D.(./.v f. ./.v :XAXGXSXCXAXGXJXKX:XJXb * #XD.D.A.V.A.S.S.S.V.}.[.}.}.}.[.}.}.D.@X#XD.hXpXNXBXGXCXqXvXzXxXNXvXlXcXlXgXlXiXuXuX",
"/././. .u  . ._.C.*XLXKXCXLXLXLXDXqXl.- @Xv.v.m.V.[.S.S.V.V.B.S.V.S.}.}.}.}.|.}.}.}.}.}.&X].CXxXBXFXNXNXlXvXyXlXlXlXxXxXiXiXiXaX",
"/./.(./.v /.[ (.*Xc.KXKXJXLXLXDXwXwX@ 1.j.m.B.V.B.V.B.v.[.V.B.V.S.!.S.B.V.[.}.}.}.}.}.}.#X=XC.SXDX8X8XpX.XcXvXpXzXzX8XzXzXgXjXrX",
" ./././.v f. ./.*XrXLXJXKXPXmXIXv.- d.m.d.m.m.m.M.B.B.V.V.}.}.R.B.B.B.B.B.B.V.S.[.[. X#X#X}. X].jXXXtXyXnXuXlXNXxXMXxXxXkXgXuXrX",
"/. .(./.I f.[ /.N.IXLXLXKXLXhXl # v.u.u.p.u.v.p.m.M.R.V.M.b.S.Y.B.x.u.<.,.=.g n n f *.=.v.#X|.|.5X5XaXiXnXbXvXzXNXxXvXvXlXgXjXrX",
"v 7X7X(.a /.P /.N.IXZXVXMXhXFXO u.d.u.u.u.=.1.u.u.x.B.m.x.M.m.V.x.1.u.g g * , : * * % * h %.*.].$X|.pXyX8XBXAXAXxXBXvXcXgXkXjXrX",
"/.7XwXg.a f.[ g.A.IXKXKXVXKX#Xv.u.l k @ : g g x I 6.u.i.u.M.V.M.u.m x g * d g % * * % % & g b b l.#X<.0XzXiX8XcXyXvXlXlXjXzXxXxX",
"v 4X9X/.v (.[ 1.*XVXPXmXhXDX[ *.: - X X X * * ; l >.>.6.0.m.m.m.u.>.g m 6 : : % . X . . * & : =.1.<.z.l.5XvX.XxXFXcXcXiXzXBXBXBX",
"v 7X4X/.I /.v :.>XIXKXPXKX9X* - % O X . X X * # x I ( 2.u.s.M.n.x.9.( ! x r 6 O . . % .   % . ! u.B.C.S.<.qXDXHXiXsXtXAXxXBXhXxX",
"m /.9X/.I /.P /.l.KXIXFX,.- - @ X X X . X X # ; 9 J D 2.0.b.Y.M.M.j.X.^ I z 9 *             & 6 x ! =.C.l.<.gXnXtXdX{.nXlXlXNXMX",
"v ;.wX/.v g. .(.yXUXUX:X, 9 - X X @ . . X - ; 6 8 z ~ w.b.!.^.Q.E.J.r.| I i # . .   . . . .     . g ! Z.#Xn v..XcXeXbXAXSXAXvXBX",
"v v wX/.I /. ./.PXKXBXu 9 > - X . X   . X # ; 6 8 c ( 0.R.=X X~.T.J.5.^ c 6 . . O . & $.s *   . . * r u.$X<.l 8X8X5Xz.qXJXnX5XcX",
"m :X7X/.v g.v g.VXUXA.l - X .             X - 6 9 z X.b.=X;X&X~.T.a.{ ^ z O X , X > 9 $.&.&.'.& . . + o E.*Xh *.,.-X8X].HXcXvXnX",
"v /.>X(.v  .v /.KXPXv # = .   . X X     X   X $ ; J 7.Q.;X<X<X~.L.t.| ^ z g k x %.n b %.'.'.'.'.: , O J a.*Xl h b *.BXXXnX].dXoX",
" .g.7X(.v  .u /.UXC.u # . . & h = : $.X   X . $ 6 ) k.&X2X4X X~.W.J.5.[ D g 9 ;.J =.y.=.u.y.1.B.u.> * 8 X.).v.d f h .XjXtXSXNXyX",
"/.d.>X/.v d.[ /..Xm 9 X   X &.;.h - : $.X X O 6 U b. X X;X;X X~.W.T.h.| ! J G D N z y J ( =.6.s.R.&Xx 6 { K.>Xh h h l.b 8XZXzXNX",
"7X>X)./.v /.[ /.b v @ X X h x D I ! =.=.m :.x ( b.!. X<X;X3X3X<X~.W.K.k.u.U D D z N z J J ~ ) q.b.^.,XD E E.&Xm = & : - *XhX9XyX",
"v v *X/.7XN.:XC., x ; . x z z D p p x v ! ! u.y.i.U.R.Q. X X X<X<X~.W.W.L.i.y.=.Q G D H T =.( 5.@.E.=XY / K.E.3Xh , h . l.:XKXJX",
"v v /.*XC.VX.XwXX u # , z z p p p z ! >.>.>.3.2.7.p.I.I.Y.!.^. X<X<XW.~.W.T.U.U.m.>.=.=.( ] 2.2.p.J.).,Xk.k.E.;Xm . , - . iXkXHX",
"n v /.[ wXIXKXUX  u # a p i z a F ! =.u.>.| / / X.] 3.s.w.G.I.T.~.1X~.~.~.E.T.Q.!.Y.u.u.6.6.u.i.b.T.%X%X2X%XR.}.7Xd . l   j yXXX",
":.v :.IXZXMXqX<.# u ; F a z F U ! ( >.2.^ J G J J T ' ] 7.e.e.F.L.<X_.W.~.W.W.Q.R.Q.R.R.B.m.b.m.Y.Q.^.&X&X=X3X X2X*.. % v : n %.",
"[ m AXIXDXZX- - u 8 I F F P U U ~ 4.X.( ~ p y p G H K ~ R 7.@.@.@.W.1X~.W.~.W.Q.!.Q.Q.R.~.R.Q.R.!.~.^.%X,X3X2X3X,X9X  % %.h : : ",
"1.d..Xh h - # X v a U U E E ^ 2.4.3.| ^ F w w r y N G K ' o.o._ _ F.W._.W.W.~.Q.R.R.Q.Q.Q.Q.Q.^.^.^. X&X X;X2X6X6X6Xd . . f j h ",
"d.l., , s - - X U W ' O.4.4.4.5.6.3.( E y 7 7 w w 0 y V K ' o.' Z _ F.~.).e.T.E.R.Q.R.R.R.Q.^.Q. X X X;X X;X&X3X3X6X6X  % X . d ",
"<.l - ;.n - = m 5.8.6.6.8.6.6.6.5.X.^ H w 2 2 8 7 8 0 y Z _ R t M Z _ F._.e.q.s.x.Y.R.R.Q.R.^.!.!. X X X;X;X;X,X,X3X9X>X  . % X ",
", - f - b @ k 6.5.6.7.y.0.w.0.6.X./ P V 3 +     3 3 3 e Z C     . . M A L._._ @.a.s.I.Y.T.Y.Y.Q.R. X XQ. X&X&X;X,X3X3X3X%     X ",
";.- - @ . $ 2.3.5.7.6.0.y.6.q.6.2.^ P e 3 o       3 3 e Y w .       o Z @.W.' _ o.6.7.s.i.Y.Y.Q.R.R.R. X^. X X;X&X,X3X6X6X.   . ",
":XO = X # | 6.5.6.6.6.0.w.6.3.2.) ~ C 7 3 o       + 3 e A / C +       M _ F.R R ` ' 5.7.6.s.b.i.Y.R.Y.R.^. X^.&X,X2X6X6X9X%     ",
"- X - X ( 4.5.5.4.0.6.3.6.6.2.>.~ J p 3 3 o . . . $ 3 q K Y Z H 3 o < M A _ Y L R ] o.3.6.7.i.s.Y.P.Y.Y.Q.!. X%X X,X6X6X3X[.    ",
"= % X 9 | >.3.5.4.2.6.6.5.2.) ( ~ F z 3 1 < o O $ + 3 e K P Z H Y ~ V M A _ 5./ / R ] R ] 7.w.7.y.x.I.b.T.R.^.).).&X1X3X6X9Xo   ",
"X . X } ) X.X.2.X.R ] | ( ( ~ ~ F z y 7 2 < $ $ 2 2 3 e E O.X.Y K C Z G Z L | 6./ R Y / / 7.3.3.3.i.s.s.I.I.R.W.).).;X1X3X3X* . ",
"X - X { ^ / X.) ) ' ) ~ ~ ~ U U G z y 8 + o o o 2 3 i p Y O.p.q.o.K M M K 2.6.i.0.| / Y K R ) 3.-.w.i.s.b.k.s.U.T.).).1X1X4X9   ",
"%.<.v ^ ^ ^ ( ^ ( ( ( ~ ~ J F H G F F t 2 + + 2 8 e i i F | 0.p.a.e.e.w.w.i.b.M.b.i.X.T K R R / X.X.5.7.w.a.s.G.K.~.).1X1X2X[.  ",
"j & I U U W ^ U Y U G J J J P F I F H p 8 8 8 w i a p t V ^ 9.j.b.h.k.J.J.b.I.I.n.s.0.2.~ Y T ~ ( / / X.5.7.t.s.k.K.W._._.1X>X. ",
"8X  I I U U U U H H H H H F C F H H F C e w i a F P F i p U >.p.m.n.b.I.U.n.k.I.b.k.p.8.^ Y K T / R ) | X.5.5.a.a.H.W.).).=X=X  ",
"& . a I F F F F F F H C D H C P P P C a a c a F P ! ! z i H ^ 9.j.n.n.Y.n.n.U.k.j.k.j.6.X.E ^ P Y E R / / ..o.0.a.s.E.W._.).).  ",
"  X a a z a c V F F V V D V C F H P P C F F F P / | :.! F U { 4.p.n.n.n.E.U.U.n.b.k.0.8.5.O.^ E Y J K T / / o.X.0.t.H.E.g.).).  ",
"  . i i i i z a p V V p a a a F F P F c F P I { 2.>.>.~ U R 3.i.m.n.n.n.n.N.U.U.n.k.r.4.4.4.| ^ ^ E K Y E T / ..+.#.e.H.).).(.  ",
"    8 t 8 8 t t a p a p a a a c F I F P [ P P { 3.2.5.2.2.3.7.7.j.n.Y.E.n.U.n.n.k.j.j.r.O.| { | / E T E Y T T / ' #.#.e.K.K.n.  ",
"  . 6 8 8 8 w w i i i e e a a c c c F I H D V N B B Q L L B L L R 7.a.k.E.U.n.j.j.p.p.9.9.| | { { / ( T T P T P / ..#.f.H.k.g.  ",
"    ; 6 7 8 7 8 w w w w 8 a a a a c D p w e w e q 5 M B M M S S K L L ` w.J.U.J.j.f.9.X.{ E | { | ..{ ^ W T T R W ..+.#.f.E.:.  ",
"    $ $ 6 7 7 8 7 t 4 4 t w 8 i z a 7 8 7 7 0 0 1 < 0 0 5 5 q N S L L B Z L 7.p.h.j.q.{ C P P { E { { ^ W P Y W W ..#.t.f.K.9   ",
"  . o ; 6 4 7 9 t 4 $ 4 4 4 8 8 8 < < < + < < < + < 0 0 < 1 1 5 q N q q M B B L O.8.9.O.w a p P ^ E { ....Y W E W ..@.e.f.J.>   ",
"      $ ; 4 8 8 8 2 O $ 2 2 4 $ + O o X   . . o o < + < < 1 q M M M M 1 1 0 q 5 e T ..P i 2 7 V U P P W ..W Y { W ..#.f.h.K.-   ",
"      $ 4 4 4 8 t 4 O 2 $ # # # o o . + 3 r S J Q Q =.` -.-.-.-.y.-.-.-.L M < < 5 5 e 3 $ o 2 w P E E W { ......{ +.#.H.H.K..   ",
"      - $ 4 8 w a u $ 4 $ O . . . X r y D G Q Q -.-.-.-.-.-.y.P.P.P.P.P.P.G.7.` G y < + # @ o 3 a E { Y { { ..+.o.+.e.f.t.h.# . ",
"-     . $ 4 8 8 a a u 4 4 # O O 6 0 r y N S L L L Q -.Q ] -.-.-.-.-.y.G.G.G.G.G.7.7.X.| U 8 $ 4 a P P { { ..O.#.q.q.q.f.t.h..   ",
"X       $ 4 8 8 a a w 8 8 4 $ 4 8 w r r r N D Z S L Q L L Q ` ` ` ` -.-.@.7.F.G.a.K.r.0.{ I i i V P E ....O...+.q.r.e.G.f.h..   ",
"        ; 4 8 i a a p i i i 4 w 7 w w r y y N V N S S G S L L Q ` ` @.F.a.e.t.t.h.h.h.r.+.{ P F P P E ..O.+.#.#.q.r.t.t.t.f.    ",
"        $ 4 8 8 a F c a i i 8 u 8 8 8 8 8 t 7 w 3 3 3 0 5 q e C L ` ..+.#.#.f.f.H.H.H.h.r.0.| E U P W { ..q.#.#.q.t.t.q.e.r.    ",
"        # $ 4 i i a F c i i i i 8 i 8 8 8 8 8 i i 8 w w 8 i a C T ` O.+.8.8.t.f.H.H.K.h.h.w.5.{ T W E ..o.+.#.f.r.t.e.e.e.q.    ",
"        . $ 4 4 i i a a i i i w i u 8 8 8 7 8 i i i i a a a p C K ^ X.O.O.+.e.f.h.h.H.H.h.r.8...W W W ....5.+.#.q.q.e.r.r.>.    ",
"          $ $ 4 7 i a a p i i w 8 8 8 8 4 7 8 8 i i i p a a p C H Y W { / O.8.e.a.h.J.H.h.r.8.4.W / ' ....+.+.#.q.r.t.#.q.^     ",
"          # $ $ 4 w p i i i w 8 8 8 i 8 8 8 7 t w a p p p p p V C C Y { ..O.#.8.f.f.f.F.t.r.+.O.{ { W ......o.#.q.8.q.+.#.9     ",
"            $ $ 4 4 i i i w i 8 8 i w w i t w t w w i a p a p p a C Y W ..8.8.q.q.r.t.t.t.q.+.....W W / ....o.@.@.#.#.+.+.      ",
"            $ $ 2 4 i i i w 8 8 8 8 w w t 8 t 7 3 w w 0 e e e i V C Y W ..O.8.#.r.r.r.t.r.#.+.o.{ W ..W ....o.+.+.8.+.+.E       ",
"            # O 2 4 4 8 i w 8 8 4 4 8 w w i w t i t w w w e p p p C C T { X.+.8.q.r.t.t.r.#.+.o...' ..W ......O.+.+.+.O.x       "
};
