/* XPM */
static char *_43043335e9b4fdf98de787f01ed3194IOuTWGIMmjhwkBPN[] = {
/* columns rows colors chars-per-pixel */
"64 64 16 1 ",
"  c black",
". c #202020",
"X c #2C2C2C",
"o c gray22",
"O c #484848",
"+ c gray33",
"@ c #646464",
"# c gray44",
"$ c #7C7C7C",
"% c gray55",
"& c #989898",
"* c gray66",
"= c #B4B4B4",
"- c #C0C0C0",
"; c #D0D0D0",
": c gainsboro",
/* pixels */
"oooooooooooooooooooooooooooooooooooooooooooooooooooooooooooooooo",
"o@@@@@@@@@@@@@@@@@@@@@@@@@@@@@@@@@@@@@@@@@@@@@@@@@@@@@@@@@@@@@@o",
"o@%%%%%%%%%%%%%%%%%%%%%%%%%%%%%%%%%%%%%%%%%%%%%%%%%%%%%%%%%%%%@o",
"o@%******************==---------;-;-;-;-;------====******&*&&%@o",
"o@%***::************===::------;-;-;-;-;::----====******--&&&%@o",
"o@%**&-::********=*===*-::----;-;-;-;-;*-::--====******&-:=&&%@o",
"o@%**#&-%*******=*===-#&-$---;-;-;-;-;-#&-$-====******&#&-$&%%@o",
"o@%**%#$*******=*===--&#$---;-;-;-;-;--&#$-====******&*$#$&%&%@o",
"o@%*********=*=*===--------;-;-;-;-;------====******&*&&&&%&%%@o",
"o@%********=*=*===--------;-;-;-;-;------====******&*&&&&%&%&%@o",
"o@%*******=*=*====-&%$$$$$$$$$$$$$$$$$$$$$$%******&*&&&&%&%&%%@o",
"o@%******=*=*====--:*@@+++++++++++++++++@#-******&*&&&&%&%&%%%@o",
"o@%***=*=*=*====----:*&&&&&&&&&&&&&&&&&&&-**-***&*&&&&%&%&%%%%@o",
"o@%**=*=*=*====------:;-;-;-;-;-;------=-=*=***&*&&&&%&%&%%%$%@o",
"o@%*=*=*=*====--------::-;-;-;-;------==:*=***&*&&&&%&%&%%%$%%@o",
"o@%=*=*=*====---------::;-;-;-;------==:*=***&*&&&&%&%&%%%$%$%@o",
"o@%*=*=*====-------;-;-::;-;-;------==:==*****&&&&%&%&%%%$%$%%@o",
"o@%=*=*====-%*----;-;-;-::;-;------=-:==*****&&&&%&#&%%%$%$%%%@o",
"o@%*=*====--*$%--;-;-;-;-::;------=-:==*****&*&&%&#O%%%$%$%$%%@o",
"o@%=*====---*%$%;-;-;-::;-::;----=-:-=***;;&*&&%&@oO%%$%$%$%%%@o",
"o@%*====----:*@$-;-;-*-::;-:;=--=--:=***%-:=&&%&@OoO%$%$%$%%%%@o",
"o@%====-----:;%+$-;-;#&-$-;::;-=-=:=*=**#&-$&&&#O+oO$%$%$%%%%%@o",
"o@%===------:;;@+$-;-%#$----::=-=:=*=***$#$&&&%O@@oO%$%$%%%%%%@o",
"o@%==-::----:;;&@+$-;-;-;----::=:=*=*****&&&&%@O$@oO$%$%**%%%%@o",
"o@%=-*-::--;:;;;&@+$-;-;----=-::-*=*****&&&&%@O$$@oO%$%*=-*%&%@o",
"o@%--#&-*-;-::;-;&@+$-;----=-==--=*****&&&&%@O$$%@oO$%$#&=$&%%@o",
"o@%--*#$-;-;::;;-;&@+$----=-==--=*****&*&&%@O$$%$@oO%$%$#$&%&%@o",
"o@%-----;-;-::;-;-;&@+$--=-==--=*****&*&&%@O$$%$%@oO$%%%%&%&%%@o",
"o@%-=$@@%;-;::;;-;-;&@+$=-==-@#$$$$*&*&&&#O@%%$%$@oO%$%%%%&%&%@o",
"o@%=&+##@-;-::;-;-;--$++$==-&oO+@@$&*&&&#O@$%$%$%@oO$%%%%&%&%%@o",
"o@%&%O+@@;-;::;;-;---&$++$=-$oOXX@$*&&&#O@$%$%$%$@oO%%%%&%&%&%@o",
"o@%%&oO+@-;-::;-;----=&$@$--#oO X+$&&&#O@$%$%$%$%@oO%%%&%&%&&%@o",
"o@%&=XOO@;-;::;;----=-=&$*=*@XOX O$&&&@@$%$%$%$%$@oO%%%%&%&&&%@o",
"o@%=;XOO@-;-::;----=-==-:=*=@XOX O#&&%*-*%%$%$%$%@oO%%%&%&&&&%@o",
"o@%;-XOO@;-;::;---=-===:-*=*@.OOOO@&%&%*-*$%$%$%%@oO%%&%&&&&&%@o",
"o@%-;XOO@-;-::;--=-===-:*=**@..XXo+%&%&%*-*$%$%$%@oO%&%&%&&&&%@o",
"o@%;-XOO@;--::;-=-===-:-==**@@@@#$%&%&%%$=-%$%$%%@oO&%&%&&&&&%@o",
"o@%-=Xoo+---::;=-===-:-==****&*&&&&%&%%$%*-*%$%%%@oO%&%&&&&&&%@o",
"o@%=&#XX#---::;-===-:-==****&*&&&&%&%%$%$%*-*%%%%@oO&%&%&&&&&%@o",
"o@%&%%&-----::;===-:-===***&*&&&&%&%%%%$%$%*-*%%%@oO%&%&==&&&%@o",
"o@%%%&::----::;===::===*****&&&&##%%%%$%$%$%*-*%%@oO&%&%=-=&&%@o",
"o@%%&*-::--=::;==-:-==*****&*&&#O+#%%$%$%$%$%*-*&@oO%&%#&=$&&%@o",
"o@%&-#&-*-=-::;=-:-==*****&*&&@O#O+#$%$%$%$%%%*-&$oO&%&$#$&&&%@o",
"o@%-;*#$-=-=::;-:-==**;;*&*&&@O#&#O#%$%$%**$%%*-*&+O%&&&&&&&&%@o",
"o@%;----=-==::;:-==*=*--=*&&$O#&%%#O#%$%&=-*%%%*-=@O&&&&&&&&&%@o",
"o@%----=-===::;:==*=*#&-$&&#@#&%%%%O+#%$#&=$%%&%*-&O&&&&&&&&&%@o",
"o@%---=-====:::==*=**%#$&&#@#&%%%%$#O+#%$#$%%%%&%*-#&&&&&&&&&%@o",
"o@%--=-=====::==*=*****&&%@O&%%%%$%$#O+#%$%%%%&%&&*$&&&&&&&&&%@o",
"o@%-=-======:==*=*=***&&%@O&%%%%$%$%$#O+#%%%%&%&&&&&&&&&&&&&&%@o",
"o@%=-=========*=*=***&*&@O&%&%%$%$%$%$#O#%%%%%&%&&%&&&&&&&&&&%@o",
"o@%-=========*=*=***&*&$O@%&%%%%$%$%$%$#O#%%%&%&&%&&&&&&&&&&&%@o",
"o@%=========*=*=***&*&%@@%&%%%%$%$%$%$%$#O#%&%&&%&&&&&&&&&&&&%@o",
"o@%========*=*=***&*&%@$*===******======&$O#%&&%&&&&&&&&&&&&&%@o",
"o@%=======*=*=*****&*$*;;:;--------;;:::;-$O&&%&&&&&&&&&&&&&&%@o",
"o@%======*=*=*****&*&-;:;-----------;;;:::-*&%&%&&&&&&&&&&&&&%@o",
"o@%=====*=*=*****&*&*&*&&&%%%%%%%%%%%%%&%&%&%&%&&&&&&&&&&&&&&%@o",
"o@%===;;=*=*****&*&*&*&**%%%%%%%%%%%%%&%==&%&%&&&&&&&&&&==&&&%@o",
"o@%==*-:;=*****&*&*&*&*=-*%%%%%%%%%%%%%*=-*&%&&&&&&&&&&*=-=&&%@o",
"o@%==#&-$*****&*&*&*&&#&=$%%%%%%%%%%%%&#&=$%&%&&&&&&&&&#&=$&&%@o",
"o@%=*%#$*****&*&*&*&&&$#$%%%%%%%%%%%%&%$#$%&%&&&&&&&&&&$#$&&&%@o",
"o@%*=*=*****&*&*&*&&&%%%%%%%%%%%%%%%&%&%&%&%&&&&&&&&&&&&&&&&&%@o",
"o@%%%%%%%%%%%%%%%%%%%%%%%%%%%%%%%%%%%%%%%%%%%%%%%%%%%%%%%%%%%%@o",
"O@@@@@@@@@@@@@@@@@@@@@@@@@@@@@@@@@@@@@@@@@@@@@@@@@@@@@@@@@@@@@@o",
"OOOOOOOOOOOOOOOOOOOOOOOOOOOOOOOOOOOOOOOOOOOOOOOOOOOOOOOOOOOOOOOO"
};
